<svg xmlns="http://www.w3.org/2000/svg" width="720" height="144" fill="none"><g fill="#000" clip-path="url(#a)"><path d="M74.315 44.064a5.429 5.429 0 0 1 3.697-5.062 52.357 52.357 0 0 1 17.435-2.88 19.93 19.93 0 0 1 21.016 21.042v17.82a19.91 19.91 0 0 1-5.796 15.227 19.923 19.923 0 0 1-15.22 5.811 27.828 27.828 0 0 1-13.28-3.449v24.03a3.926 3.926 0 0 1-7.852 0v-72.54Zm34.297 12.531a12.133 12.133 0 0 0-3.487-9.692 12.138 12.138 0 0 0-9.678-3.527 46.409 46.409 0 0 0-13.28 1.955v38.858a18.933 18.933 0 0 0 13.28 4.6 12.142 12.142 0 0 0 13.165-13.218V56.595ZM169.527 88.131a5.317 5.317 0 0 1-3.697 5.04 54.724 54.724 0 0 1-17.32 2.88 23.487 23.487 0 0 1-16.048-4.943 16.407 16.407 0 0 1-5.08-12.762c-.114-2.366.28-4.73 1.157-6.931a16.57 16.57 0 0 1 3.923-5.83 23.455 23.455 0 0 1 16.048-4.598h13.162v-7.243c0-6.782-4.965-10.346-12.24-10.346a26.078 26.078 0 0 0-13.28 3.91c-.55.36-1.19.558-1.847.572a3.694 3.694 0 0 1-3.924-3.68 4.029 4.029 0 0 1 1.962-3.448 32.424 32.424 0 0 1 17.089-4.605c10.854 0 20.091 5.76 20.091 17.475l.004 34.51Zm-7.852-19.886H148.51c-11.779 0-13.28 5.519-13.28 10.116 0 4.597 1.501 10.461 13.28 10.461a45.57 45.57 0 0 0 13.165-1.954V68.245ZM185.114 52.03a14.997 14.997 0 0 1 15.12-15.865c2.795.023 5.581.332 8.313.922a3.92 3.92 0 0 1 3.117 3.794 3.77 3.77 0 0 1-3.927 3.68 14.3 14.3 0 0 1-1.962-.36 29.301 29.301 0 0 0-5.544-.577 7.32 7.32 0 0 0-6.947 5.032 7.318 7.318 0 0 0-.329 3.014v40.468a3.928 3.928 0 0 1-7.851 0l.01-40.108ZM221.471 28.231a15.144 15.144 0 0 1 15.12-15.059c2.213.002 4.419.234 6.584.691a3.906 3.906 0 0 1 3.24 3.795 3.643 3.643 0 0 1-1.116 2.655 3.654 3.654 0 0 1-2.692 1.024c-1.962 0-3.348-.691-6.005-.691a7.23 7.23 0 0 0-7.272 7.243v9.428h13.28a3.76 3.76 0 0 1 3.809 3.791 3.676 3.676 0 0 1-1.119 2.653 3.66 3.66 0 0 1-2.69 1.026h-13.28v47.347a3.927 3.927 0 0 1-7.852 0l-.007-63.903ZM289.968 40.075a3.928 3.928 0 0 1 7.852 0v48.056a5.368 5.368 0 0 1-3.6 5.04 55.443 55.443 0 0 1-17.439 2.88 19.663 19.663 0 0 1-21.131-21.038V40.064a3.927 3.927 0 0 1 7.851 0V75.59a12.185 12.185 0 0 0 3.536 9.728 12.178 12.178 0 0 0 9.744 3.49 45.58 45.58 0 0 0 13.166-1.954l.021-46.778ZM377.382 55.364a11.945 11.945 0 0 0-11.88-11.956 20.518 20.518 0 0 0-12.009 3.91v44.834a3.872 3.872 0 0 1-5.377 3.682 3.87 3.87 0 0 1-2.359-3.682V51.573c0-5.288-5.195-8.16-10.394-8.16a40.628 40.628 0 0 0-13.51 2.184V92.16a3.928 3.928 0 0 1-7.852 0V44.427a5.337 5.337 0 0 1 3.463-4.943 49.95 49.95 0 0 1 17.899-3.333 19.31 19.31 0 0 1 13.741 5.288 28.712 28.712 0 0 1 16.398-5.288 19.8 19.8 0 0 1 19.746 19.775v36.212a3.927 3.927 0 0 1-7.851 0l-.015-36.774ZM398.514 75.023V57.215a19.672 19.672 0 0 1 5.708-15.311 19.697 19.697 0 0 1 15.305-5.727c4.645.024 9.21 1.21 13.28 3.449V17.093a3.927 3.927 0 0 1 7.852 0v71.049a5.315 5.315 0 0 1-3.694 5.04 54.889 54.889 0 0 1-17.438 2.88 19.93 19.93 0 0 1-19.743-12.807 19.906 19.906 0 0 1-1.27-8.231Zm7.851.577a12.144 12.144 0 0 0 13.162 13.219 45.76 45.76 0 0 0 13.28-1.955V48.006a18.947 18.947 0 0 0-13.28-4.598 12.145 12.145 0 0 0-13.162 13.22V75.6ZM456.837 52.03a14.982 14.982 0 0 1 4.115-11.216 14.985 14.985 0 0 1 11.005-4.649c2.795.023 5.58.332 8.312.922a3.923 3.923 0 0 1 3.118 3.794 3.77 3.77 0 0 1-3.928 3.68 14.388 14.388 0 0 1-1.962-.36 29.276 29.276 0 0 0-5.544-.577 7.315 7.315 0 0 0-7.275 8.046v40.468a3.928 3.928 0 0 1-7.852 0l.011-40.108ZM497.593 68.587v6.44a12.584 12.584 0 0 0 3.462 9.958 12.6 12.6 0 0 0 9.818 3.84 32.644 32.644 0 0 0 13.165-3.218 4.082 4.082 0 0 1 1.616-.36 3.736 3.736 0 0 1 3.817 2.848 3.738 3.738 0 0 1-.271 2.516 3.738 3.738 0 0 1-1.814 1.764 37.25 37.25 0 0 1-16.513 3.68 19.95 19.95 0 0 1-15.287-5.777 19.954 19.954 0 0 1-5.845-15.262v-17.82a21.076 21.076 0 0 1 29.139-19.47 21.074 21.074 0 0 1 13.01 19.47v5.976a5.404 5.404 0 0 1-5.429 5.4l-28.868.015Zm26.445-11.956a13.222 13.222 0 1 0-26.445 0v4.716h26.445v-4.716ZM584.431 88.131a5.321 5.321 0 0 1-3.693 5.04 54.721 54.721 0 0 1-17.32 2.88 23.482 23.482 0 0 1-16.052-4.943 16.405 16.405 0 0 1-5.083-12.762 16.564 16.564 0 0 1 5.083-12.762 23.454 23.454 0 0 1 16.049-4.597h13.161v-7.243c0-6.782-4.964-10.346-12.24-10.346a26.076 26.076 0 0 0-13.284 3.91c-.55.36-1.19.558-1.847.572a3.695 3.695 0 0 1-3.927-3.68 4.04 4.04 0 0 1 1.962-3.448 32.436 32.436 0 0 1 17.093-4.598c10.854 0 20.091 5.76 20.091 17.475l.007 34.502Zm-7.851-19.886h-13.162c-11.779 0-13.28 5.518-13.28 10.116 0 4.597 1.501 10.461 13.28 10.461a45.56 45.56 0 0 0 13.162-1.954V68.245ZM663.414 55.364a11.948 11.948 0 0 0-11.879-11.955 20.522 20.522 0 0 0-12.01 3.91v44.833a3.866 3.866 0 0 1-3.868 3.868 3.867 3.867 0 0 1-3.868-3.868V51.573c0-5.288-5.199-8.16-10.393-8.16a40.639 40.639 0 0 0-13.511 2.184V92.16a3.927 3.927 0 0 1-7.852 0V44.427a5.339 5.339 0 0 1 3.464-4.942 49.916 49.916 0 0 1 17.899-3.334 19.32 19.32 0 0 1 13.741 5.288 28.705 28.705 0 0 1 16.398-5.288 19.798 19.798 0 0 1 19.745 19.775v36.212a3.928 3.928 0 0 1-7.851 0l-.015-36.774ZM694.022 66.387a14.829 14.829 0 0 1-10.047-14.598c0-9.54 8.427-15.634 18.72-15.634a34.07 34.07 0 0 1 14.086 2.88 4.006 4.006 0 0 1 2.427 3.679 3.693 3.693 0 0 1-1.206 2.618 3.666 3.666 0 0 1-2.722.946 3.96 3.96 0 0 1-1.501-.36 28.713 28.713 0 0 0-12.01-2.52c-4.503 0-9.932 2.185-9.932 8.046a8.434 8.434 0 0 0 5.76 7.92l10.854 4.366A16.632 16.632 0 0 1 720 79.023a17.451 17.451 0 0 1-5.622 12.433 17.448 17.448 0 0 1-12.853 4.58 34.638 34.638 0 0 1-15.243-3.333 3.747 3.747 0 0 1-2.307-3.564 3.706 3.706 0 0 1 1.17-2.686 3.703 3.703 0 0 1 2.757-.993 4.293 4.293 0 0 1 1.617.46 30.504 30.504 0 0 0 12.355 2.88c5.425 0 10.274-3.218 10.274-8.51 0-4.827-2.426-7.358-7.272-9.424l-10.854-4.479ZM141.044 28.836a3.957 3.957 0 0 1-2.848-1.21 64.632 64.632 0 0 0-93.056 0 3.96 3.96 0 0 1-6.464-1.132 3.913 3.913 0 0 1 .762-4.3 72.547 72.547 0 0 1 104.453 0 3.926 3.926 0 0 1-2.847 6.646v-.004Z"/><path d="M91.66 143.996a71.937 71.937 0 0 1-61.863-34.694 3.959 3.959 0 0 1 6.747-4.075 64.587 64.587 0 0 0 86.715 22.659 64.588 64.588 0 0 0 23.52-22.659 3.944 3.944 0 0 1 5.362-1.255 3.943 3.943 0 0 1 1.384 5.33 71.921 71.921 0 0 1-61.866 34.694ZM40.795 96.307a15.12 15.12 0 0 1-9.806-3.6 15.084 15.084 0 0 1-23.76-17.19 15.03 15.03 0 0 1 7.891-27.864c.399 0 .795.016 1.188.047a15.12 15.12 0 0 1 29.39 0c.394-.032.79-.047 1.188-.047a15.03 15.03 0 0 1 7.892 27.867 15.04 15.04 0 0 1-13.965 20.776l-.018.01ZM30.99 78.328l3.467 6.358a7.2 7.2 0 1 0 11.573-8.36l-5.018-5.262 7.171-1.304a7.2 7.2 0 1 0-4.435-13.54l-6.635 3.169 1.023-7.254c.043-.313.065-.628.065-.943a7.214 7.214 0 0 0-14.43 0c0 .315.022.63.066.943l1.018 7.254-6.634-3.168a7.201 7.201 0 1 0-4.428 13.54l7.2 1.306-5.04 5.27a7.106 7.106 0 0 0-1.977 4.936 7.218 7.218 0 0 0 13.558 3.416l3.456-6.36Z"/></g><defs><clipPath id="a"><path fill="#fff" d="M0 0h720v143.996H0z"/></clipPath></defs></svg>